/* XPM */
const char * CSVimpIcon[] = {
/* columns rows colors chars-per-pixel */
"32 32 146 2 ",
"   c #FF3400",
".  c #FF3C00",
"X  c #FF4400",
"o  c #FF4E00",
"O  c #FF5300",
"+  c #FF5A00",
"@  c #FF5608",
"#  c #FF6200",
"$  c #FF6902",
"%  c #FF670A",
"&  c #FF6A0E",
"*  c #FF6C17",
"=  c #FF6C1C",
"-  c #FF7123",
";  c #FF762E",
":  c #FF7D2C",
">  c #FF7232",
",  c #FE7A31",
"<  c #FE7F3C",
"1  c #99746E",
"2  c #D17953",
"3  c #FF8414",
"4  c #FF843C",
"5  c #FE8541",
"6  c #FF8B45",
"7  c #FF8448",
"8  c #FF8A4A",
"9  c #FF9F4E",
"0  c #FF8F54",
"q  c #FE9254",
"w  c #FF955B",
"e  c #FE995E",
"r  c #FF9662",
"t  c #FE9B65",
"y  c #FF9C68",
"u  c #D3A575",
"i  c #FDA26C",
"p  c #FEA671",
"a  c #FFAF7D",
"s  c #FFB374",
"d  c #526590",
"f  c #6F7492",
"g  c #5D72A2",
"h  c #3377CC",
"j  c #0057F3",
"k  c #0054FF",
"l  c #005DFF",
"z  c #0769EA",
"x  c #137AEC",
"c  c #0063FF",
"v  c #0C63FF",
"b  c #016CFF",
"n  c #146BFF",
"m  c #0A71F6",
"M  c #0176FF",
"N  c #0179FF",
"B  c #1975FF",
"V  c #3384FF",
"C  c #358FFF",
"Z  c #3B93FF",
"A  c #508ADB",
"S  c #789FDB",
"D  c #4593FF",
"F  c #4994FF",
"G  c #4A9BFF",
"H  c #569CFF",
"J  c #5C9BFF",
"K  c #75A1E3",
"L  c #65A2FF",
"P  c #66ABFF",
"I  c #6CAAFF",
"U  c #75ACFF",
"Y  c #7BB0FF",
"T  c #8B8B8B",
"R  c #939495",
"E  c #9C9C9C",
"W  c #B7A285",
"Q  c #B2A697",
"!  c #898FB5",
"~  c #9FA5A8",
"^  c #A4A4A4",
"/  c #ABABAB",
"(  c #B0A9A1",
")  c #AFAFB0",
"_  c #B5B4B5",
"`  c #BBBBBC",
"'  c #FCAC81",
"]  c #FDB389",
"[  c #FCB994",
"{  c #FCBC9A",
"}  c #C7A9A6",
"|  c #D5B9AE",
" . c #FFC88C",
".. c #FFD38C",
"X. c #FDC39E",
"o. c #FCC5A1",
"O. c #FCC8A7",
"+. c #FDCCAB",
"@. c #FFD0A0",
"#. c #FFDBA6",
"$. c #FFD0AE",
"%. c #FDCDB1",
"&. c #FED2B4",
"*. c #FFD8B6",
"=. c #FCD2BA",
"-. c #FFE2B3",
";. c #939DC4",
":. c #ADBCD2",
">. c #82B5FF",
",. c #99BEFF",
"<. c #BFC1C2",
"1. c #B3CFDE",
"2. c #8FC0FF",
"3. c #9DC7FF",
"4. c #BAD7E5",
"5. c #BCD9E6",
"6. c #A8C7FF",
"7. c #A8C9FF",
"8. c #AED0FF",
"9. c #B7D7FF",
"0. c #B2DDFF",
"q. c #C3C4C8",
"w. c #CCCCCD",
"e. c #CFCFD0",
"r. c LightGray",
"t. c #DADADA",
"y. c #FFDAC5",
"u. c #E9DED1",
"i. c #FBE1D3",
"p. c #D2DCE1",
"a. c #C8DEF5",
"s. c #C9E3F1",
"d. c #CCE3FF",
"f. c #E2E2E2",
"g. c #EAEAEB",
"h. c #F5EFE0",
"j. c #E0E9F5",
"k. c #E4F2FD",
"l. c #ECF6FC",
"z. c #EEFEFE",
"x. c #F4F4F4",
"c. c #FAF7F4",
"v. c #FAFDF7",
"b. c #F4FDFE",
"n. c #FCFDFE",
"m. c None",
/* pixels */
"m.m.m.m.& # $ $ $ $ $ $ $ $ $ $ # $ m.m.m.m.m.m.m.m.m.m.m.m.m.m.",
"m.m.m.% $ O X o o X X o o X o o O $ $ m.m.m.m.m.m.m.m.m.m.m.m.m.",
"m.m.m.+ + e { ] ] ] ] ] ] ] ] { e + + # m.m.m.m.m.m.m.m.m.m.m.m.",
"m.m.m.# o &.b.n.b.n.n.b.n.b.n.n.&.o - @ # m.m.m.m.m.m.m.m.m.m.m.",
"m.m.m.# O X.b.n.c.n.x.n.n.c.n.n.X.  { ] . + m.m.m.m.m.m.m.m.m.m.",
"m.m.m.# o o.n.v.n.c.n.c.c.b.v.b.o.  ' n.{ O # m.m.m.m.m.m.m.m.m.",
"m.m.m.# o o.b.n.c.n.c.n.n.n.n.n.o.. t x.v.y O # m.m.m.m.m.m.m.m.",
"m.m.m.+ o o.n.v.n.c.b.c.n.x.v.n.{   X . . O o # $ m.m.m.m.m.m.m.",
"m.m.m.# o o.n.n.n.n.n.n.v.n.n.n.y.4 5 5 6 8 q & # m.m.m.m.m.m.m.",
"m.m.m.# o o.b.n.n.f.f.v.n.g.t.c.l.b.n.n.z.z.n.4 O m.m.m.m.m.m.m.",
"m.m.m.# o o.n.n.` R T r.f.^ E ` q.~ n.g.R p.n., O m.m.m.m.m.m.m.",
"m.m.m.# O o.n.w.T f.c.x.E E x.n.f.T g.w.T l.n., O m.m.m.m.m.m.m.",
"m.m.m.# o o.n.) / n.n.n.t.R ^ x.n.E w._ / n.n., O m.m.m.m.m.m.m.",
"m.m.m.# o o.n.` R c.n.x.n.n./ R n.q.E Q u.n.n.: o m.m.m.m.m.m.m.",
"m.m.m.# o o.n.g.R ^ / w.` _ ^ / n.h.W ( a.0.0.2 O m.m.m.m.m.m.m.",
"m.m.m.# O X.n.n.b.5.4.b.k.1.s.n.n.j.A m b l c N h x m.m.m.m.m.m.",
"m.m.m.# o &.x.[ &.&.+.$.&.&.$...:.b c N b l l M N N N m.m.m.m.m.",
"m.m.m.# O &.i = - , 4 , , , 3 1 j M N b v 9.2.l M N M M m.m.m.m.",
"m.m.m.# O O.p q 8 y ' > - 9 u M M N b l 7.n.n.U k M M M N m.m.m.",
"m.m.m.# O +.y 8 t 8 8 o.&.9 d N N b k 6.n.n.n.n.I k M N N m.m.m.",
"m.m.m.# O +.p e y e p y.*.| z M M k ,.n.n.n.n.n.n.J k N N N m.m.",
"m.m.m.# O $.p 8 w 7 w %.@.;.b M b ,.n.n.l.n.n.n.n.n.L c M N m.m.",
"m.m.m.# O +.p q r q r =.#.S b c F n.n.3.H n.n.Y d.n.k.B b N N m.",
"m.m.m.# O +.t w i w y y.*.K b b b 8.d.k F n.n.V n k.>.b M N N m.",
"m.m.m.# O %.y = - = 6 X. .! b N b b b k P n.n.G k b b M M N N m.",
"m.m.m.# O $.c.{ +.O.[ a s } b M M M M c I n.n.G b b M N M M m.m.",
"m.m.m.+ o &.b.b.b.n.n.b.n.n.Z c N M N l I n.n.D l N M N N N m.m.",
"m.m.m.# O ' i.=.=.=.=.=.=.-.` b M M N l Y n.n.G l N M N N m.m.m.",
"m.m.m.# $ # O + + O + + + O # f N N N c H n.n.V c N N N m.m.m.m.",
"m.m.m.m.% # # # # # # # # # # # g N M M b D C b N M N m.m.m.m.m.",
"m.m.m.m.m.m.m.m.m.m.m.m.m.m.m.m.m.m.M N M l c N N M m.m.m.m.m.m.",
"m.m.m.m.m.m.m.m.m.m.m.m.m.m.m.m.m.m.m.m.M N N N m.m.m.m.m.m.m.m."
};

